<?xml version="1.0" encoding="UTF-8" standalone="no"?>
<!-- Created with Inkscape (http://www.inkscape.org/) -->

<svg
   version="1.1"
   id="svg1"
   width="248"
   height="202"
   viewBox="0 0 248 202"
   sodipodi:docname="logo.svg"
   inkscape:version="1.3.1 (9b9bdc1480, 2023-11-25, custom)"
   xmlns:inkscape="http://www.inkscape.org/namespaces/inkscape"
   xmlns:sodipodi="http://sodipodi.sourceforge.net/DTD/sodipodi-0.dtd"
   xmlns="http://www.w3.org/2000/svg"
   xmlns:svg="http://www.w3.org/2000/svg">
  <defs
     id="defs1" />
  <sodipodi:namedview
     id="namedview1"
     pagecolor="#ffffff"
     bordercolor="#000000"
     borderopacity="0.25"
     inkscape:showpageshadow="2"
     inkscape:pageopacity="0.0"
     inkscape:pagecheckerboard="0"
     inkscape:deskcolor="#d1d1d1"
     showgrid="false"
     inkscape:zoom="2.2004951"
     inkscape:cx="207.68054"
     inkscape:cy="144.74016"
     inkscape:window-width="1920"
     inkscape:window-height="1131"
     inkscape:window-x="0"
     inkscape:window-y="0"
     inkscape:window-maximized="1"
     inkscape:current-layer="g1" />
  <g
     inkscape:groupmode="layer"
     inkscape:label="Image"
     id="g1">
    <path
       style="fill:#FBA296;stroke:none"
       d="M 28.197554,180.61387 H 214.19756 c 0.0726,-26.30888 0.65957,-52.60624 0.0147,-79.00001 -0.16826,-6.885959 3.13078,-22.283183 -0.19752,-28.100307 -3.27901,-5.730941 -14.3113,-9.894195 -19.81714,-13.323303 -16.96474,-10.565872 -34.06873,-20.907165 -51,-31.526229 -5.55651,-3.484955 -16.16002,-13.083146 -23,-12.176698 -5.37178,0.711884 -11.44795,6.148668 -16,8.937501 -12.379832,7.58458 -24.589692,15.451507 -37.000002,22.986114 -9.36792,5.687485 -18.71073,11.438324 -28,17.253082 -3.31049,2.072251 -9.040024,4.361252 -10.686733,8.135025 -2.519413,5.773751 -0.515668,15.46517 -0.483025,21.81482 0.435663,84.743075 0.195494,-0.07517 0.169754,85.000005 M 121.1976,100.61386 c -7.06753,-4.845131 -11.30832,-11.364753 -21,-16.3287 C 84.880501,76.439948 69.230728,68.777836 52.197558,66.613865 64.057788,53.766834 85.241328,44.897083 100.19756,35.816792 c 3.81396,-2.315552 12.29587,-10.024811 16.90663,-8.756164 5.26723,1.449279 8.759,11.971999 10.39506,16.553237 6.6518,18.626068 4.60843,40.442955 -6.30169,56.999995 m 25,40.00001 h -2 c -2.78186,-8.22314 -6.59963,-15.66566 -11.2284,-23.00001 -1.99745,-3.16499 -6.12164,-7.02947 -6.05015,-11 0.12199,-6.776233 7.25169,-15.181178 9.12038,-21.999995 5.3665,-19.582367 1.43893,-38.357621 -7.84183,-55.999999 9.83189,2.309295 19.49212,10.613829 28,15.949843 15.62733,9.801239 36.24005,18.36293 49.6821,30.951385 3.28822,3.079422 4.21713,17.736481 1.29011,21.356484 -3.17126,3.922072 -17.83414,4.414302 -22.97221,6.614962 -16.73013,7.16559 -30.94927,20.19653 -38,37.12733 m -38,33 H 34.197554 v -70.00001 c 0,-6.812617 -0.2944,-6.364619 1.027779,-26.655856 0.459615,-7.053626 16.306775,-3.254906 21.972225,-2.260033 16.36602,2.87394 31.67134,9.475777 45.000002,19.394287 4.1061,3.05555 11.06097,7.433022 12.74768,12.521602 1.8972,5.72363 -7.75919,18.72076 -9.2446,25.00001 -3.51374,14.85349 -0.82942,27.49028 2.49692,42 m 63,-91.000005 c -13.4662,0.0015 -25.07887,4.866516 -30.82562,17.999995 -1.27312,2.90955 -4.59885,11.38601 -1.53164,13.97145 2.90426,2.44808 9.32221,0.0503 12.35726,-1.06481 13.01021,-4.78011 19.43178,-17.706646 20,-30.906635 m -64,24.999995 C 99.674718,97.423465 84.880618,93.94981 73.197558,98.540561 c -3.4698,1.363427 -10.79321,4.433939 -10.79321,8.986879 0,4.20417 7.55402,7.38101 10.79321,8.53781 12.55826,4.48486 24.75438,0.37074 34.000002,-8.45139 m 101,-2 v 50.00001 l -1.6034,16.97223 -15.3966,1.02777 h -41 c -0.005,-6.8329 -2.37247,-14.29674 -1.06174,-21 5.19508,-26.5684 32.67806,-46.78158 59.06174,-47.00001 m -86,8 c 12.08624,17.91581 20.93936,38.02236 21,60.00001 -6.23499,0 -21.2291,2.77414 -26.29784,-1.02777 -3.47333,-2.60526 -4.11544,-10.01924 -4.78164,-13.97223 -2.25994,-13.40964 -1.03772,-35.46887 10.07948,-45.00001 m 50,31.46452 c -4.34062,0.78233 -18.4888,4.89752 -16.65433,11.36574 2.6862,9.47133 21.22852,10.30314 28.65433,8.85493 2.45146,-0.47809 4.78099,-1.36819 7,-2.50616 19.55983,-10.03092 -8.11643,-19.6761 -19,-17.71451 z"
       id="path1"
       sodipodi:nodetypes="ccssssssssssccscssscccssscsssscccssssssccsssccsssccccccscccsscssscs" />
  </g>
</svg>
